<svg width="74" height="79" viewBox="0 0 74 79" fill="none" xmlns="http://www.w3.org/2000/svg">
<g id="noto:beach-with-umbrella">
<path id="Vector" d="M10.2386 69.9706C7.99546 68.5572 5.00656 65.928 5.09328 61.5089C5.16843 57.7564 10.1403 51.7882 22.888 49.5046C35.6356 47.221 42.6714 48.3073 48.3833 48.9615C54.0952 49.6157 57.6622 51.5722 57.6622 51.5722L52.4591 62.7865L10.2386 69.9706Z" fill="#04C1EA"/>
<path id="Vector_2" d="M32.8491 59.7191L21.1305 63.0395L11.7417 67.4648C11.7417 67.4648 10.5739 70.094 11.1578 70.7852C11.7417 71.4765 20.3558 76.7349 35.6298 76.7966C52.5342 76.8645 61.5241 72.1677 64.6344 69.7484C67.7447 67.329 58.4831 53.4361 58.4831 53.4361L50.7536 50.0416L41.9719 50.9488L36.7919 53.7138L32.8491 59.7191Z" fill="#F5C876"/>
<path id="Vector_3" d="M40.4745 58.5896L53.5691 57.849C53.5691 57.849 51.8578 54.3433 51.2277 52.7695C50.5108 50.9797 50.3778 49.949 50.3778 49.949C50.3778 49.949 51.9156 49.4922 54.5403 50.202C57.165 50.9118 66.4959 54.1088 68.7795 60.2683C70.7683 65.6379 64.5939 69.7915 64.5939 69.7915C64.5939 69.7915 60.4314 66.7611 58.8762 65.175C56.4423 62.6939 55.1242 60.614 55.1242 60.614L40.3358 61.1694L39.457 60.5461L40.4745 58.5896Z" fill="#F2A159"/>
<path id="Vector_4" d="M12.3314 60.8239C10.678 62.589 12.5916 64.7615 12.5916 64.7615C12.5916 64.7615 8.83954 65.6626 8.96672 68.0079C9.03032 69.1806 10.5219 70.5631 11.1694 70.7729C11.8169 70.9828 11.6897 69.6373 12.5916 68.6992C14.9214 66.2798 22.1075 65.7243 27.0909 65.175C32.0744 64.6257 34.1209 62.7865 35.0517 62.1323C37.5145 60.4042 36.6069 55.5099 39.2894 53.3312C43.6022 49.8256 53.465 50.307 53.3956 49.9181C53.3263 49.5293 45.2209 47.5852 37.792 50.7946C32.8259 52.9424 32.9184 57.4293 29.4266 58.676C25.9347 59.9228 14.985 57.991 12.3314 60.8239Z" fill="#DCECF6"/>
<path id="Vector_5" d="M19.3036 62.4902C18.2572 62.8976 19.2458 64.0764 19.7314 64.3727C20.7027 64.9652 22.015 65.5885 22.015 65.5885C22.015 65.5885 19.2573 67.8227 20.0205 68.9892C20.5812 69.8471 25.7728 67.7178 25.7728 67.7178C25.8248 67.7178 28.9756 70.4643 30.3169 70.4705C31.317 70.4766 30.6406 66.4896 30.6406 66.4896C30.6406 66.4896 34.8552 65.533 34.8552 64.1628C34.8552 63.0951 32.7623 63.4037 32.7623 63.4037C32.7623 63.4037 20.35 62.0829 19.3036 62.4902Z" fill="#EE594A"/>
<path id="Vector_6" d="M28.2356 59.7499C27.143 59.645 25.1311 62.0582 25.1311 62.0582C25.1311 62.0582 19.2053 61.6262 19.107 62.6939C19.0088 63.7616 22.2463 64.2183 22.2463 64.8232C22.2463 65.428 19.6331 67.6623 19.8702 68.372C20.1072 69.0818 25.2814 65.8848 25.6688 66.039C26.0561 66.1933 29.9758 70.2359 30.6753 69.5447C31.2766 68.9522 30.658 65.4774 30.658 65.4774C30.658 65.4774 34.6528 64.4652 34.6008 63.6999C34.5545 62.9408 29.5653 62.3791 29.5653 62.3791C29.5653 62.3791 29.282 59.8487 28.2356 59.7499Z" fill="#F79228"/>
<path id="Vector_7" d="M35.6183 11.0045L32.8838 10.7946L35.6703 32.5567C35.6703 32.5567 38.4627 57.0775 38.6534 58.5464C38.8963 60.4227 39.3299 61.4225 40.8792 61.1695C42.4286 60.9164 42.2725 59.2932 42.1742 58.028C42.0759 56.7627 39.5958 33.754 39.5958 33.754L35.6183 11.0045Z" fill="#4EA4B0"/>
<path id="Vector_8" d="M33.3809 7.30749C33.3809 7.30749 20.1823 8.85046 11.6839 18.923C4.82735 27.0513 3.71157 34.3526 4.19719 34.4329C5.01235 34.5687 7.08782 33.828 9.35407 34.834C11.6203 35.8401 12.9384 37.92 13.6958 37.92C14.4531 37.92 17.2166 35.908 21.1189 36.5128C25.0155 37.1176 27.6575 39.5987 28.4784 39.5987C29.2994 39.5987 32.5658 36.9819 37.5955 36.7103C42.1858 36.4634 45.2672 37.6484 45.8974 37.5805C46.5275 37.5126 47.7531 33.359 52.5978 31.816C57.4425 30.273 59.0439 31.5383 59.7377 31.5383C60.4314 31.5383 60.8072 27.9154 64.2644 26.502C67.7216 25.0948 69.0455 25.6935 69.797 25.5639C70.5486 25.4343 67.0278 16.4419 54.5461 10.3502C44.2266 5.32014 33.3809 7.30749 33.3809 7.30749Z" fill="#EE5948"/>
<path id="Vector_9" d="M33.988 8.32587C33.988 8.32587 25.397 11.0724 19.4192 21.077C14.5283 29.2609 14.4531 35.3093 14.7653 35.6426C15.0775 35.9759 17.9739 34.4329 21.4947 34.7724C25.0155 35.1056 27.987 37.9015 28.1605 37.2596C28.3801 36.4449 28.3108 29.2238 29.1086 23.1445C30.5944 11.7698 34.0631 9.29485 34.0631 9.29485C34.0631 9.29485 38.6881 12.603 42.1973 21.941C44.4 27.7981 45.4927 33.8157 45.9494 34.581C46.1517 34.9205 48.0537 31.8099 52.0081 30.4397C55.6676 29.1683 58.8647 30.1496 59.3041 29.8842C59.7434 29.6127 55.6387 20.108 48.788 14.6397C41.0527 8.4493 33.988 8.32587 33.988 8.32587Z" fill="#FEFEFE"/>
<path id="Vector_10" d="M33.2075 2.41322C31.5194 2.66009 32.057 5.29548 32.1842 6.84462C32.242 7.5297 32.3808 10.1589 34.0747 10.017C35.4853 9.8997 35.2887 7.89384 35.1616 6.41876C35.0402 4.93751 34.9823 2.154 33.2075 2.41322Z" fill="#4EA4B0"/>
</g>
</svg>
